G04*
G04 #@! TF.GenerationSoftware,Altium Limited,Altium Designer,24.2.2 (26)*
G04*
G04 Layer_Color=16711935*
%FSLAX25Y25*%
%MOIN*%
G70*
G04*
G04 #@! TF.SameCoordinates,2439F8CB-51F8-4C0C-9BB0-1E6E72BC7716*
G04*
G04*
G04 #@! TF.FilePolarity,Negative*
G04*
G01*
G75*
%ADD13C,0.09061*%
%ADD14C,0.14243*%
%ADD15C,0.03150*%
%ADD16C,0.05943*%
%ADD17R,0.05943X0.05943*%
%ADD40R,0.07487X0.07093*%
G04:AMPARAMS|DCode=41|XSize=29mil|YSize=54mil|CornerRadius=4.5mil|HoleSize=0mil|Usage=FLASHONLY|Rotation=270.000|XOffset=0mil|YOffset=0mil|HoleType=Round|Shape=RoundedRectangle|*
%AMROUNDEDRECTD41*
21,1,0.02900,0.04500,0,0,270.0*
21,1,0.02000,0.05400,0,0,270.0*
1,1,0.00900,-0.02250,-0.01000*
1,1,0.00900,-0.02250,0.01000*
1,1,0.00900,0.02250,0.01000*
1,1,0.00900,0.02250,-0.01000*
%
%ADD41ROUNDEDRECTD41*%
%ADD42R,0.03628X0.07487*%
%ADD43R,0.05912X0.04337*%
%ADD44R,0.04416X0.04101*%
%ADD45R,0.03550X0.04416*%
%ADD46R,0.02762X0.03943*%
%ADD47C,0.05124*%
G04:AMPARAMS|DCode=48|XSize=15.02mil|YSize=31.17mil|CornerRadius=3.38mil|HoleSize=0mil|Usage=FLASHONLY|Rotation=90.000|XOffset=0mil|YOffset=0mil|HoleType=Round|Shape=RoundedRectangle|*
%AMROUNDEDRECTD48*
21,1,0.01502,0.02441,0,0,90.0*
21,1,0.00827,0.03117,0,0,90.0*
1,1,0.00676,0.01221,0.00413*
1,1,0.00676,0.01221,-0.00413*
1,1,0.00676,-0.01221,-0.00413*
1,1,0.00676,-0.01221,0.00413*
%
%ADD48ROUNDEDRECTD48*%
G04:AMPARAMS|DCode=49|XSize=31.17mil|YSize=15.02mil|CornerRadius=3.38mil|HoleSize=0mil|Usage=FLASHONLY|Rotation=90.000|XOffset=0mil|YOffset=0mil|HoleType=Round|Shape=RoundedRectangle|*
%AMROUNDEDRECTD49*
21,1,0.03117,0.00827,0,0,90.0*
21,1,0.02441,0.01502,0,0,90.0*
1,1,0.00676,0.00413,0.01221*
1,1,0.00676,0.00413,-0.01221*
1,1,0.00676,-0.00413,-0.01221*
1,1,0.00676,-0.00413,0.01221*
%
%ADD49ROUNDEDRECTD49*%
%ADD50R,0.06699X0.06699*%
%ADD51R,0.04416X0.03550*%
%ADD52R,0.04731X0.03156*%
%ADD53R,0.04731X0.05912*%
G04:AMPARAMS|DCode=54|XSize=29mil|YSize=54mil|CornerRadius=4.5mil|HoleSize=0mil|Usage=FLASHONLY|Rotation=180.000|XOffset=0mil|YOffset=0mil|HoleType=Round|Shape=RoundedRectangle|*
%AMROUNDEDRECTD54*
21,1,0.02900,0.04500,0,0,180.0*
21,1,0.02000,0.05400,0,0,180.0*
1,1,0.00900,-0.01000,0.02250*
1,1,0.00900,0.01000,0.02250*
1,1,0.00900,0.01000,-0.02250*
1,1,0.00900,-0.01000,-0.02250*
%
%ADD54ROUNDEDRECTD54*%
D13*
X90000Y-37750D02*
D03*
Y37500D02*
D03*
D14*
X-90000Y-35000D02*
D03*
Y35000D02*
D03*
D15*
X-95000Y-10315D02*
D03*
Y-24685D02*
D03*
D16*
X-75000Y-40000D02*
D03*
X-45000D02*
D03*
X75000Y40000D02*
D03*
X65000D02*
D03*
X55000D02*
D03*
X45000D02*
D03*
X35000D02*
D03*
X25000D02*
D03*
X15000D02*
D03*
X5000D02*
D03*
X-5000D02*
D03*
X-15000D02*
D03*
X-25000D02*
D03*
X-35000D02*
D03*
X65000Y-40000D02*
D03*
X55000D02*
D03*
X45000D02*
D03*
X35000D02*
D03*
X25000D02*
D03*
X15000D02*
D03*
X5000D02*
D03*
X-5000D02*
D03*
X-15000D02*
D03*
X-25000D02*
D03*
X-35000D02*
D03*
X-55000D02*
D03*
X-65000D02*
D03*
D17*
X75000D02*
D03*
D40*
X95571Y2500D02*
D03*
X79429D02*
D03*
D41*
X95000Y-10800D02*
D03*
Y-14200D02*
D03*
D42*
X63453Y-7264D02*
D03*
X57547D02*
D03*
Y-27736D02*
D03*
X63453D02*
D03*
X41953Y-7264D02*
D03*
X36047D02*
D03*
Y-27736D02*
D03*
X41953D02*
D03*
X-57047Y-7264D02*
D03*
X-62953D02*
D03*
Y-27736D02*
D03*
X-57047D02*
D03*
X26453D02*
D03*
X20547D02*
D03*
Y-7264D02*
D03*
X26453D02*
D03*
X10953Y-27736D02*
D03*
X5047D02*
D03*
Y-7264D02*
D03*
X10953D02*
D03*
X-5047Y-27736D02*
D03*
X-10953D02*
D03*
Y-7264D02*
D03*
X-5047D02*
D03*
X-20547Y-27736D02*
D03*
X-26453D02*
D03*
Y-7264D02*
D03*
X-20547D02*
D03*
X-36547Y-27736D02*
D03*
X-42453D02*
D03*
Y-7264D02*
D03*
X-36547D02*
D03*
D43*
X86831Y28740D02*
D03*
Y21260D02*
D03*
X78169Y25000D02*
D03*
D44*
X95000Y18110D02*
D03*
Y11890D02*
D03*
X-72500Y-5610D02*
D03*
Y610D02*
D03*
X-80000D02*
D03*
Y-5610D02*
D03*
X-95000Y-610D02*
D03*
Y5610D02*
D03*
D45*
X85488Y12500D02*
D03*
X79512D02*
D03*
X85488Y-25000D02*
D03*
X79512D02*
D03*
D46*
X78760Y-6988D02*
D03*
X82500D02*
D03*
X86240D02*
D03*
Y-18012D02*
D03*
X78760D02*
D03*
D47*
X95000Y-27500D02*
D03*
D48*
X-76752Y20453D02*
D03*
Y18484D02*
D03*
Y16516D02*
D03*
Y14547D02*
D03*
X-88248D02*
D03*
Y16516D02*
D03*
Y20453D02*
D03*
Y18484D02*
D03*
D49*
X-79547Y11752D02*
D03*
X-81516D02*
D03*
X-83484D02*
D03*
X-85453D02*
D03*
Y23248D02*
D03*
X-83484D02*
D03*
X-81516D02*
D03*
X-79547D02*
D03*
D50*
X-82500Y17500D02*
D03*
D51*
X-95000Y20488D02*
D03*
Y14512D02*
D03*
X-87500Y-5488D02*
D03*
Y488D02*
D03*
D52*
X-89685Y-23012D02*
D03*
Y-11988D02*
D03*
D53*
X-89095Y-17500D02*
D03*
D54*
X-73300Y-30000D02*
D03*
X-76700D02*
D03*
M02*
