G04*
G04 #@! TF.GenerationSoftware,Altium Limited,Altium Designer,24.2.2 (26)*
G04*
G04 Layer_Color=128*
%FSLAX25Y25*%
%MOIN*%
G70*
G04*
G04 #@! TF.SameCoordinates,2439F8CB-51F8-4C0C-9BB0-1E6E72BC7716*
G04*
G04*
G04 #@! TF.FilePolarity,Positive*
G04*
G01*
G75*
%ADD25R,0.07087X0.06693*%
%ADD27R,0.03228X0.07087*%
%ADD28R,0.05512X0.03937*%
%ADD29R,0.04016X0.03701*%
%ADD30R,0.03150X0.04016*%
%ADD31R,0.02362X0.03543*%
G04:AMPARAMS|DCode=33|XSize=11.02mil|YSize=27.17mil|CornerRadius=1.38mil|HoleSize=0mil|Usage=FLASHONLY|Rotation=90.000|XOffset=0mil|YOffset=0mil|HoleType=Round|Shape=RoundedRectangle|*
%AMROUNDEDRECTD33*
21,1,0.01102,0.02441,0,0,90.0*
21,1,0.00827,0.02717,0,0,90.0*
1,1,0.00276,0.01221,0.00413*
1,1,0.00276,0.01221,-0.00413*
1,1,0.00276,-0.01221,-0.00413*
1,1,0.00276,-0.01221,0.00413*
%
%ADD33ROUNDEDRECTD33*%
G04:AMPARAMS|DCode=34|XSize=27.17mil|YSize=11.02mil|CornerRadius=1.38mil|HoleSize=0mil|Usage=FLASHONLY|Rotation=90.000|XOffset=0mil|YOffset=0mil|HoleType=Round|Shape=RoundedRectangle|*
%AMROUNDEDRECTD34*
21,1,0.02717,0.00827,0,0,90.0*
21,1,0.02441,0.01102,0,0,90.0*
1,1,0.00276,0.00413,0.01221*
1,1,0.00276,0.00413,-0.01221*
1,1,0.00276,-0.00413,-0.01221*
1,1,0.00276,-0.00413,0.01221*
%
%ADD34ROUNDEDRECTD34*%
%ADD36R,0.04016X0.03150*%
%ADD37R,0.04331X0.02756*%
%ADD38R,0.04331X0.05512*%
%ADD55C,0.04524*%
%ADD56R,0.04724X0.04724*%
D25*
X95571Y2500D02*
D03*
X79429D02*
D03*
D27*
X63453Y-7264D02*
D03*
X57547D02*
D03*
Y-27736D02*
D03*
X63453D02*
D03*
X41953Y-7264D02*
D03*
X36047D02*
D03*
Y-27736D02*
D03*
X41953D02*
D03*
X-57047Y-7264D02*
D03*
X-62953D02*
D03*
Y-27736D02*
D03*
X-57047D02*
D03*
X26453D02*
D03*
X20547D02*
D03*
Y-7264D02*
D03*
X26453D02*
D03*
X10953Y-27736D02*
D03*
X5047D02*
D03*
Y-7264D02*
D03*
X10953D02*
D03*
X-5047Y-27736D02*
D03*
X-10953D02*
D03*
Y-7264D02*
D03*
X-5047D02*
D03*
X-20547Y-27736D02*
D03*
X-26453D02*
D03*
Y-7264D02*
D03*
X-20547D02*
D03*
X-36547Y-27736D02*
D03*
X-42453D02*
D03*
Y-7264D02*
D03*
X-36547D02*
D03*
D28*
X86831Y28740D02*
D03*
Y21260D02*
D03*
X78169Y25000D02*
D03*
D29*
X95000Y18110D02*
D03*
Y11890D02*
D03*
X-72500Y-5610D02*
D03*
Y610D02*
D03*
X-80000D02*
D03*
Y-5610D02*
D03*
X-95000Y-610D02*
D03*
Y5610D02*
D03*
D30*
X85488Y12500D02*
D03*
X79512D02*
D03*
X85488Y-25000D02*
D03*
X79512D02*
D03*
D31*
X78760Y-6988D02*
D03*
X82500D02*
D03*
X86240D02*
D03*
Y-18012D02*
D03*
X78760D02*
D03*
D33*
X-76752Y20453D02*
D03*
Y18484D02*
D03*
Y16516D02*
D03*
Y14547D02*
D03*
X-88248D02*
D03*
Y16516D02*
D03*
Y20453D02*
D03*
Y18484D02*
D03*
D34*
X-79547Y11752D02*
D03*
X-81516D02*
D03*
X-83484D02*
D03*
X-85453D02*
D03*
Y23248D02*
D03*
X-83484D02*
D03*
X-81516D02*
D03*
X-79547D02*
D03*
D36*
X-95000Y20488D02*
D03*
Y14512D02*
D03*
X-87500Y-5488D02*
D03*
Y488D02*
D03*
D37*
X-89685Y-23012D02*
D03*
Y-11988D02*
D03*
D38*
X-89095Y-17500D02*
D03*
D55*
X95000Y-27500D02*
D03*
D56*
X-82500Y17500D02*
D03*
M02*
