M48
;Layer_Color=9474304
;FILE_FORMAT=2:5
INCH,LZ
;TYPE=PLATED
T01F00S00C0.01378
T02F00S00C0.02362
T03F00S00C0.03543
T04F00S00C0.09843
;TYPE=NON_PLATED
T05F00S00C0.08661
%
T01
X00825Y-00425
Y-00325
X00975
Y-00425
X009Y-00175
X00875Y-00125
Y-00025
Y00075
X009Y00125
X00975Y00275
X0095Y00325
X00975Y00375
X0095Y00425
X0085
X00825Y00375
X006Y0000058
X004
X00225
X00075
X-00075
X-00225
X-00375
X-0031484Y-0015
X-00475
Y-00325
X-003
X-0015
X0002171Y-003293
X00165Y-00325
X00325
X0054671Y-003293
X003125Y-000985
X0015578Y-0009574
X0Y-001
X-001575Y-000985
X-006Y0
X-0067984Y-0015
X-0085Y-00275
X-0095Y-00175
Y-0005
X-00875Y0005
X-00825
X-0075Y00075
X-00975Y00275
X-0095Y00425
X-0085
X-00975Y-00425
T02
X-0095Y-0024685
Y-0010315
T03
X-0065Y-004
X-0055
X-0045
X-0035
X-0025
X-0015
X-0005
X0005
X0015
X0025
X0035
X0045
X0055
X0065
X0075
Y004
X0065
X0055
X0045
X0035
X0025
X0015
X0005
X-0005
X-0015
X-0025
X-0035
X-0075Y-004
T04
X-009Y-0035
Y0035
T05
X009Y-003775
Y00375
M30
