G04*
G04 #@! TF.GenerationSoftware,Altium Limited,Altium Designer,24.2.2 (26)*
G04*
G04 Layer_Color=5050912*
%FSLAX25Y25*%
%MOIN*%
G70*
G04*
G04 #@! TF.SameCoordinates,2439F8CB-51F8-4C0C-9BB0-1E6E72BC7716*
G04*
G04*
G04 #@! TF.FilePolarity,Positive*
G04*
G01*
G75*
%ADD10C,0.00800*%
%ADD18C,0.00500*%
%ADD61C,0.00394*%
D10*
X-100000Y45000D02*
X100000D01*
Y-45000D02*
Y45000D01*
X-100000Y-45000D02*
X100000D01*
X-100000D02*
Y45000D01*
D18*
Y-45000D02*
Y45000D01*
X100000D01*
Y-45000D02*
Y45000D01*
X-100000Y-45000D02*
X100000D01*
D61*
X54988Y-23799D02*
Y-11201D01*
X66012D01*
Y-23799D02*
Y-11201D01*
X54988Y-23799D02*
X66012D01*
X33488D02*
Y-11201D01*
X44512D01*
Y-23799D02*
Y-11201D01*
X33488Y-23799D02*
X44512D01*
X-65512D02*
Y-11201D01*
X-54488D01*
Y-23799D02*
Y-11201D01*
X-65512Y-23799D02*
X-54488D01*
X-45012D02*
X-33988D01*
Y-11201D01*
X-45012D02*
X-33988D01*
X-45012Y-23799D02*
Y-11201D01*
X-29012Y-23799D02*
X-17988D01*
Y-11201D01*
X-29012D02*
X-17988D01*
X-29012Y-23799D02*
Y-11201D01*
X-13512Y-23799D02*
X-2488D01*
Y-11201D01*
X-13512D02*
X-2488D01*
X-13512Y-23799D02*
Y-11201D01*
X2488Y-23799D02*
X13512D01*
Y-11201D01*
X2488D02*
X13512D01*
X2488Y-23799D02*
Y-11201D01*
X17988Y-23799D02*
X29012D01*
Y-11201D01*
X17988D02*
X29012D01*
X17988Y-23799D02*
Y-11201D01*
M02*
